<?xml version="1.0" standalone="no"?>
<!DOCTYPE svg PUBLIC "-//W3C//DTD SVG 20010904//EN"
 "http://www.w3.org/TR/2001/REC-SVG-20010904/DTD/svg10.dtd">
<svg version="1.0" xmlns="http://www.w3.org/2000/svg"
 width="256.000000pt" height="256.000000pt" viewBox="0 0 256.000000 256.000000"
 preserveAspectRatio="xMidYMid meet">

<g transform="translate(0.000000,256.000000) scale(0.100000,-0.100000)"
fill="#000000" stroke="none">
<path d="M1930 1894 c0 -12 5 -26 11 -30 7 -4 -4 -12 -25 -19 -43 -15 -86 -42
-86 -55 0 -5 16 -2 35 6 56 23 61 20 60 -38 0 -63 23 -74 39 -19 15 51 66 97
125 111 67 16 123 5 173 -33 132 -102 113 -315 -36 -402 -124 -73 -287 -47
-409 65 l-51 47 29 16 c66 34 105 103 105 187 0 63 -16 65 -72 10 -42 -41 -65
-49 -85 -29 -9 9 -6 19 9 39 35 48 -2 101 -56 80 -85 -32 -44 -170 51 -170 21
0 49 7 61 16 31 22 30 -5 -3 -40 -25 -28 -72 -35 -92 -15 -17 17 -43 3 -43
-24 l0 -24 -56 29 c-70 35 -140 37 -222 7 -31 -11 -74 -26 -95 -31 -48 -13
-35 -31 22 -31 23 0 41 -2 41 -6 0 -3 -9 -19 -20 -36 -29 -44 -27 -119 4 -150
49 -49 122 -40 152 17 38 72 -46 157 -100 102 -19 -18 -21 -65 -4 -82 31 -31
73 2 49 39 -6 11 -7 19 -1 19 5 0 14 -9 20 -21 9 -16 8 -26 -5 -45 -19 -29
-48 -31 -75 -4 -42 42 -18 110 53 145 95 48 188 25 285 -71 37 -37 52 -60 52
-79 0 -24 3 -26 25 -21 15 4 52 -2 88 -13 139 -42 263 -35 370 22 71 37 120
92 148 166 18 48 20 68 14 146 -10 139 -11 168 -2 193 7 18 5 22 -11 22 -11 0
-30 -8 -42 -18 -21 -17 -24 -17 -83 13 -59 29 -66 30 -204 31 l-143 1 0 -23z
m98 -11 c-10 -2 -28 -2 -40 0 -13 2 -5 4 17 4 22 1 32 -1 23 -4z m364 -249 c1
-74 -23 -147 -60 -176 -12 -9 -11 -5 4 17 36 53 49 98 47 170 -1 82 -10 110
-55 161 -28 32 -29 35 -9 25 20 -11 26 -10 40 3 15 16 17 11 24 -56 5 -40 9
-105 9 -144z m-414 166 c-22 -30 -35 -41 -22 -17 9 16 36 47 41 47 2 0 -6 -13
-19 -30z m-265 0 c-25 -10 -30 -46 -12 -83 10 -21 9 -21 -10 2 -36 40 -22 92
24 90 19 0 19 -1 -2 -9z m147 -145 c-21 -64 -93 -109 -144 -89 -29 11 -17 20
20 16 20 -3 46 1 59 8 27 14 65 78 66 111 1 17 3 19 6 6 2 -9 -1 -33 -7 -52z
m-360 -62 c-14 -2 -42 -11 -63 -20 -20 -9 -40 -13 -44 -10 -10 11 60 36 97 35
25 0 28 -2 10 -5z m285 -128 c30 -30 76 -66 103 -80 51 -28 19 -23 -38 5 -19
9 -39 16 -45 14 -8 -3 -69 77 -83 109 -9 19 13 2 63 -48z"/>
<path d="M1240 1480 c-121 -71 -181 -88 -412 -115 -579 -67 -678 -79 -678 -85
0 -8 47 -14 530 -65 367 -40 408 -49 551 -131 52 -30 98 -54 102 -54 4 0 -2
15 -13 33 -11 17 -20 44 -20 58 0 21 -15 36 -82 83 -46 31 -90 56 -99 56 -8 0
-30 -11 -49 -25 -48 -35 -50 -31 -6 14 l37 38 -38 32 c-45 37 -32 42 17 6 19
-14 38 -25 43 -25 6 0 45 24 88 53 55 36 81 60 84 77 3 14 14 42 24 63 11 20
16 37 13 37 -4 0 -45 -23 -92 -50z m20 -24 c0 -6 -96 -66 -105 -66 -5 0 15 16
45 35 58 36 60 37 60 31z m-387 -127 c59 -31 43 -99 -23 -99 -48 0 -66 54 -30
90 23 23 25 24 53 9z m362 -204 c11 -9 -2 -5 -30 10 -27 15 -54 32 -60 37 -15
16 67 -28 90 -47z"/>
<path d="M830 1305 c-26 -31 13 -82 44 -56 19 16 21 42 4 59 -16 16 -33 15
-48 -3z"/>
<path d="M1905 1225 c-45 -17 -81 -24 -101 -20 -28 5 -32 2 -37 -22 -8 -40
-67 -104 -125 -136 -65 -35 -128 -44 -173 -24 -19 8 -44 18 -57 22 -24 7 -52
52 -52 82 0 51 60 81 94 47 19 -19 20 -25 3 -48 -12 -16 -13 -15 -12 11 0 22
-5 29 -24 31 -26 4 -41 -12 -41 -45 0 -50 70 -72 105 -33 48 53 5 140 -68 140
-83 0 -126 -97 -77 -177 l20 -33 -24 0 c-14 0 -37 -5 -52 -11 -28 -10 -26 -11
41 -35 39 -14 86 -30 105 -36 52 -15 141 -5 197 23 l49 24 -4 -27 c-5 -34 21
-48 47 -24 10 9 28 16 40 16 28 0 71 -42 71 -70 l0 -21 -22 21 c-46 43 -124
19 -148 -46 -30 -77 73 -144 111 -73 9 17 7 27 -9 49 -39 52 13 56 69 5 57
-51 69 -47 69 22 0 96 -59 182 -125 183 -15 1 -6 14 41 59 82 78 137 103 236
109 72 4 83 2 143 -27 107 -53 161 -145 153 -262 -8 -110 -93 -189 -205 -189
-88 0 -152 42 -178 117 -19 56 -40 50 -40 -12 1 -27 5 -58 9 -68 7 -16 2 -15
-48 7 -31 14 -56 21 -56 16 0 -12 53 -49 89 -61 28 -10 29 -12 16 -32 -25 -39
-9 -43 140 -37 133 5 143 7 199 38 l59 31 25 -19 c32 -26 68 -27 56 -2 -9 19
-9 57 1 192 6 83 4 102 -14 151 -30 79 -88 141 -169 181 -59 29 -77 33 -162
36 -81 2 -105 -1 -165 -23z m-40 -61 c-22 -15 -64 -50 -92 -77 -29 -28 -53
-48 -53 -43 0 13 77 116 83 110 3 -3 22 4 44 15 54 29 65 26 18 -5z m510 -129
c22 -52 26 -126 11 -209 -7 -43 -11 -88 -8 -100 5 -21 5 -21 -16 -2 -18 15
-24 16 -37 6 -8 -7 -15 -8 -15 -2 0 5 7 15 16 23 63 52 78 191 31 294 -15 33
-20 51 -11 40 9 -11 22 -33 29 -50z m-924 -56 c44 -20 44 -20 9 -14 -19 3 -41
12 -50 20 -19 20 -10 19 41 -6z m368 -14 c33 -28 55 -82 48 -117 -3 -18 -5
-16 -6 8 -3 71 -79 137 -134 116 -24 -9 -27 -9 -17 4 20 23 75 17 109 -11z
m-116 -133 c-19 -34 -12 -59 19 -72 22 -8 22 -9 3 -9 -27 -1 -45 17 -45 47 0
27 17 62 30 62 5 0 2 -13 -7 -28z m287 -87 c13 -14 21 -25 18 -25 -2 0 -15 11
-28 25 -13 14 -21 25 -18 25 2 0 15 -11 28 -25z m75 -75 c24 -6 17 -8 -33 -9
-40 -1 -61 3 -57 9 7 11 46 11 90 0z"/>
</g>
</svg>
